<?xml version="1.0" standalone="no"?>
<svg
  width="600"
  height="600"
  viewBox="0 0 600 600"
  xmlns="http://www.w3.org/2000/svg"
>
  <g transform="translate(300,300)">
    <path d="M103.7,-155.9C141.5,-137.1,184,-120.3,196.4,-90.5C208.7,-60.7,191,-17.9,181.6,23.9C172.2,65.7,171.1,106.5,152.7,137.9C134.2,169.2,98.4,191.1,64.5,185.4C30.6,179.7,-1.3,146.5,-49.1,143.4C-97,140.3,-160.7,167.4,-192.5,153.9C-224.2,140.4,-224,86.3,-216.1,40.4C-208.3,-5.6,-192.8,-43.3,-158.8,-53.7C-124.7,-64.1,-72.1,-47.2,-42.5,-69.7C-13,-92.2,-6.5,-154.1,13.2,-174.7C33,-195.3,66,-174.6,103.7,-155.9Z" fill="#5000ca" />
  </g>
</svg>
  